<svg width="120" height="121" viewBox="0 0 120 121" fill="none" xmlns="http://www.w3.org/2000/svg">
<path d="M120 92.7134H0V92.7734H120V92.7134Z" fill="#E6E6E6"/>
<path d="M112.416 94.8303H107.911V94.8903H112.416V94.8303Z" fill="#E6E6E6"/>
<path d="M91.6222 96.4766H89.5366V96.5366H91.6222V96.4766Z" fill="#E6E6E6"/>
<path d="M71.8368 95.6487H67.1904V95.7087H71.8368V95.6487Z" fill="#E6E6E6"/>
<path d="M29.7889 95.6174H19.4233V95.6774H29.7889V95.6174Z" fill="#E6E6E6"/>
<path d="M17.2873 95.6174H15.7681V95.6774H17.2873V95.6174Z" fill="#E6E6E6"/>
<path d="M67.9153 94.1965H45.4321V94.2565H67.9153V94.1965Z" fill="#E6E6E6"/>
<path d="M56.88 82.0094H10.5384C10.1754 82.0088 9.82742 81.8642 9.57094 81.6072C9.31446 81.3503 9.17041 81.0021 9.17041 80.639V15.4959C9.17357 15.1349 9.31902 14.7898 9.57516 14.5354C9.8313 14.2811 10.1774 14.1381 10.5384 14.1375H56.88C57.2435 14.1375 57.592 14.2818 57.849 14.5388C58.106 14.7958 58.2504 15.1444 58.2504 15.5079V80.639C58.2504 81.0025 58.106 81.3511 57.849 81.6081C57.592 81.8651 57.2435 82.0094 56.88 82.0094ZM10.5384 14.1855C10.1913 14.1861 9.8586 14.3244 9.61337 14.5701C9.36814 14.8158 9.23041 15.1487 9.23041 15.4959V80.639C9.23041 80.9862 9.36814 81.3191 9.61337 81.5648C9.8586 81.8105 10.1913 81.9488 10.5384 81.9494H56.88C57.2274 81.9488 57.5603 81.8106 57.8059 81.5649C58.0515 81.3193 58.1898 80.9864 58.1904 80.639V15.4959C58.1898 15.1485 58.0515 14.8156 57.8059 14.57C57.5603 14.3243 57.2274 14.1861 56.88 14.1855H10.5384Z" fill="#E6E6E6"/>
<path d="M108.794 82.0094H62.4505C62.0872 82.0088 61.739 81.8642 61.4822 81.6074C61.2253 81.3505 61.0807 81.0023 61.0801 80.639V15.4959C61.0839 15.1347 61.2298 14.7895 61.4864 14.5353C61.7429 14.281 62.0893 14.1381 62.4505 14.1375H108.794C109.155 14.1387 109.501 14.282 109.756 14.5363C110.012 14.7905 110.157 15.1353 110.16 15.4959V80.639C110.16 81.0017 110.016 81.3495 109.76 81.6064C109.504 81.8632 109.157 82.0082 108.794 82.0094ZM62.4505 14.1855C62.1031 14.1861 61.7702 14.3243 61.5246 14.57C61.279 14.8156 61.1407 15.1485 61.1401 15.4959V80.639C61.1407 80.9864 61.279 81.3193 61.5246 81.5649C61.7702 81.8106 62.1031 81.9488 62.4505 81.9494H108.794C109.142 81.9488 109.475 81.8106 109.72 81.5649C109.966 81.3193 110.104 80.9864 110.105 80.639V15.4959C110.104 15.1485 109.966 14.8156 109.72 14.57C109.475 14.3243 109.142 14.1861 108.794 14.1855H62.4505Z" fill="#E6E6E6"/>
<path d="M62.6303 18.6206H14.0903V53.2118H62.6303V18.6206Z" fill="#FAFAFA"/>
<path d="M63.5279 18.6206H14.5103V53.2118H63.5279V18.6206Z" fill="#F5F5F5"/>
<path d="M62.2705 51.7981V20.0317L15.7681 20.0317V51.7981H62.2705Z" fill="#FAFAFA"/>
<path d="M24.2354 51.7981L31.613 20.0317H41.285L33.9074 51.7981H24.2354Z" fill="white"/>
<path d="M35.4722 51.7981L42.8522 20.0317H47.2202L39.8402 51.7981H35.4722Z" fill="white"/>
<path d="M62.2705 51.7981V20.0317H62.1097V51.7981H62.2705Z" fill="#FAFAFA"/>
<path d="M13.147 18.5631V32.2719H16.7734C16.7734 32.2719 23.2798 28.0215 24.7702 19.2783C24.8063 19.0689 24.7961 18.8541 24.7403 18.6491C24.6845 18.444 24.5844 18.2537 24.4471 18.0915C24.3099 17.9293 24.1387 17.7992 23.9458 17.7102C23.7528 17.6213 23.5427 17.5757 23.3302 17.5767H14.1334C13.8718 17.5767 13.6209 17.6806 13.4359 17.8656C13.2509 18.0506 13.147 18.3015 13.147 18.5631Z" fill="#E0E0E0"/>
<path d="M13.147 57.443V33.3782H16.7734C16.7734 33.3782 24.1342 47.5502 24.9862 57.443H13.147Z" fill="#E0E0E0"/>
<path d="M16.6682 32.272H13.2794C13.0792 32.272 12.917 32.4342 12.917 32.6344V33.016C12.917 33.2161 13.0792 33.3784 13.2794 33.3784H16.6682C16.8683 33.3784 17.0306 33.2161 17.0306 33.016V32.6344C17.0306 32.4342 16.8683 32.272 16.6682 32.272Z" fill="#F5F5F5"/>
<path d="M64.5598 18.5631V32.2719H60.9262C60.9262 32.2719 54.4102 28.0215 52.9294 19.2783C52.8937 19.0689 52.9042 18.8543 52.9602 18.6495C53.0162 18.4446 53.1163 18.2545 53.2535 18.0924C53.3906 17.9303 53.5616 17.8001 53.7544 17.711C53.9471 17.622 54.157 17.5761 54.3694 17.5767H63.5758C63.8368 17.5779 64.0867 17.6823 64.2711 17.8671C64.4554 18.0519 64.5592 18.3021 64.5598 18.5631Z" fill="#E0E0E0"/>
<path d="M64.5598 57.443V33.3782H60.9262C60.9262 33.3782 53.5678 47.5502 52.7134 57.443H64.5598Z" fill="#E0E0E0"/>
<path d="M61.032 33.3757H64.4208C64.621 33.3757 64.7832 33.2135 64.7832 33.0133V32.6317C64.7832 32.4316 64.621 32.2693 64.4208 32.2693H61.032C60.8319 32.2693 60.6696 32.4316 60.6696 32.6317V33.0133C60.6696 33.2135 60.8319 33.3757 61.032 33.3757Z" fill="#F5F5F5"/>
<path d="M63.463 61.8159H55.4878V92.7135H63.463V61.8159Z" fill="#FAFAFA"/>
<path d="M61.3345 92.7133H63.4633V89.1445H59.1025L61.3345 92.7133Z" fill="#F4F8FF"/>
<path d="M25.3082 61.8159H17.333V92.7135H25.3082V61.8159Z" fill="#E0E0E0"/>
<path d="M63.463 61.8159H23.4502V91.4847H63.463V61.8159Z" fill="#FAFAFA"/>
<path d="M35.4722 56.5693C35.4722 59.4493 38.2466 61.8157 41.6402 61.8157H44.7026C48.0938 61.8157 50.8682 59.4541 50.8682 56.5693H35.4722Z" fill="#EBEBEB"/>
<path d="M33.6958 49.9766H39.4558C39.4558 49.9766 38.455 52.6166 38.455 54.1718C38.455 55.727 42.8374 61.8158 36.5758 61.8158C30.3142 61.8158 34.6966 55.7246 34.6966 54.1718C34.6966 52.619 33.6958 49.9766 33.6958 49.9766Z" fill="#E0E0E0"/>
<path d="M61.812 63.623H25.1016V71.1038H61.812V63.623Z" fill="#EBEBEB"/>
<path d="M25.579 92.7133H23.4502V89.1445H27.8134L25.579 92.7133Z" fill="#FAFAFA"/>
<path d="M42.3286 67.3624C42.3286 67.5855 42.3948 67.8036 42.5187 67.9891C42.6427 68.1746 42.8188 68.3191 43.0249 68.4045C43.2311 68.4899 43.4579 68.5122 43.6767 68.4687C43.8955 68.4252 44.0965 68.3177 44.2542 68.16C44.412 68.0022 44.5194 67.8012 44.5629 67.5824C44.6065 67.3636 44.5841 67.1368 44.4987 66.9307C44.4134 66.7246 44.2688 66.5484 44.0833 66.4245C43.8978 66.3005 43.6797 66.2344 43.4566 66.2344C43.1575 66.2344 42.8705 66.3532 42.659 66.5648C42.4475 66.7763 42.3286 67.0632 42.3286 67.3624Z" fill="#FAFAFA"/>
<path d="M61.812 72.9111H25.1016V80.3919H61.812V72.9111Z" fill="#EBEBEB"/>
<path d="M42.3286 76.6502C42.3286 76.8733 42.3948 77.0914 42.5187 77.2769C42.6427 77.4624 42.8188 77.607 43.0249 77.6924C43.2311 77.7777 43.4579 77.8001 43.6767 77.7565C43.8955 77.713 44.0965 77.6056 44.2542 77.4478C44.412 77.2901 44.5194 77.0891 44.5629 76.8703C44.6065 76.6515 44.5841 76.4247 44.4987 76.2186C44.4134 76.0124 44.2688 75.8363 44.0833 75.7123C43.8978 75.5884 43.6797 75.5222 43.4566 75.5222C43.1575 75.5222 42.8705 75.6411 42.659 75.8526C42.4475 76.0641 42.3286 76.3511 42.3286 76.6502Z" fill="#FAFAFA"/>
<path d="M61.812 82.1965H25.1016V89.6773H61.812V82.1965Z" fill="#EBEBEB"/>
<path d="M43.4566 87.0663C44.0796 87.0663 44.5846 86.5613 44.5846 85.9383C44.5846 85.3153 44.0796 84.8103 43.4566 84.8103C42.8336 84.8103 42.3286 85.3153 42.3286 85.9383C42.3286 86.5613 42.8336 87.0663 43.4566 87.0663Z" fill="#FAFAFA"/>
<path d="M88.7713 18.2031H70.9561V30.8847H88.7713V18.2031Z" fill="#E0E0E0"/>
<path d="M90.2256 18.2031H71.9688V30.8847H90.2256V18.2031Z" fill="#F5F5F5"/>
<path d="M89.0615 29.7205V19.3669H73.1327V29.7205H89.0615Z" fill="white"/>
<path d="M86.2583 26.7038V22.3813H75.9359V26.7038H86.2583Z" fill="#F5F5F5"/>
<path d="M103.224 24.5439H92.3809V35.9151H103.224V24.5439Z" fill="#E0E0E0"/>
<path d="M104.683 24.5439H93.396V35.9151H104.683V24.5439Z" fill="#F5F5F5"/>
<path d="M103.519 34.751V25.7078H94.5598V34.751H103.519Z" fill="white"/>
<path d="M97.3633 30.2294C97.3633 29.8301 97.5217 29.4471 97.8039 29.1645C98.086 28.8819 98.4688 28.7228 98.8681 28.7222H99.2089C99.6082 28.7228 99.9909 28.8819 100.273 29.1645C100.555 29.4471 100.714 29.8301 100.714 30.2294C100.714 30.6285 100.555 31.0112 100.273 31.2934C99.9907 31.5756 99.608 31.7342 99.2089 31.7342H98.8801C98.6815 31.7358 98.4845 31.698 98.3005 31.6231C98.1166 31.5482 97.9493 31.4376 97.8083 31.2977C97.6673 31.1578 97.5553 30.9914 97.479 30.808C97.4026 30.6247 97.3633 30.428 97.3633 30.2294Z" fill="#F5F5F5"/>
<path d="M120 39.7815H91.3679H86.1623V46.3983H80.9567V53.0151H75.7511V59.6319H70.5455V66.2487H65.3399V72.8631H60.1343V79.4799H54.9287V86.0967H49.7231V92.7135H54.9287H120V39.7815Z" fill="#FAFAFA"/>
<path d="M78.8592 86.0967H49.188V88.0815H78.8592V86.0967Z" fill="#EBEBEB"/>
<path d="M84.0648 79.48H54.3936V81.4648H84.0648V79.48Z" fill="#EBEBEB"/>
<path d="M89.2703 72.863H59.5991V74.8478H89.2703V72.863Z" fill="#EBEBEB"/>
<path d="M94.4759 66.2463H64.8047V68.2311H94.4759V66.2463Z" fill="#EBEBEB"/>
<path d="M99.6815 59.6318H70.0103V61.6166H99.6815V59.6318Z" fill="#EBEBEB"/>
<path d="M104.887 53.0151H75.2158V54.9999H104.887V53.0151Z" fill="#EBEBEB"/>
<path d="M110.093 46.3982H80.4214V48.383H110.093V46.3982Z" fill="#EBEBEB"/>
<path d="M115.298 39.7815H85.627V41.7663H115.298V39.7815Z" fill="#EBEBEB"/>
<path d="M114.794 39.7815V46.3983H109.589V53.0151H104.383V59.6319H99.1774V66.2487H93.9718V72.8631H88.7662V79.4799H83.5606V86.0967H78.355V92.7135H83.5606H120V46.3983V39.7815H114.794Z" fill="white"/>
<path d="M59.9999 103.552C85.6997 103.552 106.534 102.336 106.534 100.835C106.534 99.3348 85.6997 98.1184 59.9999 98.1184C34.3001 98.1184 13.4663 99.3348 13.4663 100.835C13.4663 102.336 34.3001 103.552 59.9999 103.552Z" fill="#F5F5F5"/>
<path d="M87.6358 39.8174C87.9718 40.943 89.7046 43.0502 89.8414 44.5838C89.9782 46.1174 87.0238 48.5702 87.0238 48.5702C87.0238 48.5702 84.8158 41.1878 86.1982 40.3262C87.5806 39.4646 87.6358 39.8174 87.6358 39.8174Z" fill="#263238"/>
<path d="M81.5687 47.7928C81.0455 48.2296 80.5319 48.5968 79.9967 48.9736C79.4615 49.3504 78.9095 49.6936 78.3479 50.0152C77.7843 50.3487 77.2035 50.6523 76.6079 50.9248C76.3055 51.0616 76.0055 51.196 75.6935 51.3136C75.5399 51.376 75.3839 51.436 75.2255 51.4888L74.7455 51.6568C74.3351 51.7715 73.9058 51.8025 73.4831 51.748C73.1298 51.7067 72.7801 51.6393 72.4367 51.5464C71.7967 51.3693 71.1703 51.1463 70.5623 50.8792C69.3821 50.3639 68.2435 49.7581 67.1567 49.0672L67.6055 48.232C68.1719 48.472 68.7527 48.712 69.3287 48.9208C69.9047 49.1296 70.4855 49.3504 71.0663 49.5304C71.6326 49.716 72.2097 49.8666 72.7943 49.9816C73.0628 50.0341 73.3347 50.0669 73.6079 50.08C73.8117 50.0958 74.0165 50.0746 74.2127 50.0176C74.7603 49.8081 75.2956 49.5677 75.8159 49.2976C76.0823 49.1584 76.3463 49.0168 76.6055 48.8632C76.8647 48.7096 77.1287 48.5608 77.3855 48.4024C77.9015 48.0832 78.4055 47.7448 78.9047 47.3968C79.4039 47.0488 79.9007 46.6768 80.3447 46.324L81.5687 47.7928Z" fill="#E58A7B"/>
<path d="M82.8357 45.2367C82.2405 44.7711 79.7781 46.2951 79.0317 46.9311L79.5765 50.2263C79.5765 50.2263 83.1165 48.7431 83.3277 47.7303C83.5509 46.6719 83.2797 45.5919 82.8357 45.2367Z" fill="#077339"/>
<path opacity="0.2" d="M82.8357 45.2367C82.2405 44.7711 79.7781 46.2951 79.0317 46.9311L79.5765 50.2263C79.5765 50.2263 83.1165 48.7431 83.3277 47.7303C83.5509 46.6719 83.2797 45.5919 82.8357 45.2367Z" fill="black"/>
<path d="M91.1183 55.2086L83.6447 56.6654C79.7831 46.2086 80.6231 45.8654 80.6231 45.8654C81.1662 45.567 81.7273 45.3025 82.3031 45.0734L82.4039 45.035C82.8839 44.8598 82.9799 44.8334 83.6183 44.6462C84.7175 44.3846 85.7423 44.1662 87.0119 43.9862L87.2519 43.9526C87.4919 43.9238 87.7103 43.8998 87.9311 43.8782C88.0799 43.8614 88.2287 43.8518 88.3703 43.8422L88.8503 43.8158C89.6711 43.775 90.2591 43.787 90.2591 43.787C90.0311 50.3174 90.4007 52.1918 91.1183 55.2086Z" fill="#077339"/>
<path opacity="0.2" d="M91.1183 55.2086L83.6447 56.6654C79.7831 46.2086 80.6231 45.8654 80.6231 45.8654C81.1662 45.567 81.7273 45.3025 82.3031 45.0734L82.4039 45.035C82.8839 44.8598 82.9799 44.8334 83.6183 44.6462C84.7175 44.3846 85.7423 44.1662 87.0119 43.9862L87.2519 43.9526C87.4919 43.9238 87.7103 43.8998 87.9311 43.8782C88.0799 43.8614 88.2287 43.8518 88.3703 43.8422L88.8503 43.8158C89.6711 43.775 90.2591 43.787 90.2591 43.787C90.0311 50.3174 90.4007 52.1918 91.1183 55.2086Z" fill="black"/>
<path d="M85.2646 40.5687C84.7846 41.3631 86.5246 41.7303 87.5542 40.9167C88.3774 40.2639 88.183 38.7567 87.4774 38.4063C86.7718 38.0559 85.2646 40.5687 85.2646 40.5687Z" fill="#077339"/>
<path opacity="0.4" d="M85.2646 40.5687C84.7846 41.3631 86.5246 41.7303 87.5542 40.9167C88.3774 40.2639 88.183 38.7567 87.4774 38.4063C86.7718 38.0559 85.2646 40.5687 85.2646 40.5687Z" fill="black"/>
<path d="M92.5389 98.4902L90.6694 98.6294L89.9854 94.3262L91.855 94.187L92.5389 98.4902Z" fill="#E58A7B"/>
<path d="M105.763 92.4758L104.177 93.4742L101.352 90.1238L102.938 89.123L105.763 92.4758Z" fill="#E58A7B"/>
<path d="M89.9854 94.3263L90.3645 96.7167L92.2078 96.4071L91.8573 94.1895L89.9854 94.3263Z" fill="#CF6F64"/>
<path d="M102.941 89.1255L101.352 90.1239L102.523 91.5111L104.146 90.5535L102.941 89.1255Z" fill="#CF6F64"/>
<path d="M83.7598 56.6655C83.7598 56.6655 83.7334 71.5023 84.9454 77.0895C86.2078 82.9023 89.9206 96.1263 89.9206 96.1263L92.6134 95.7783C92.6134 95.7783 90.5086 82.4199 89.611 76.6431C88.6342 70.3479 89.2342 55.5999 89.2342 55.5999L83.7598 56.6655Z" fill="#077339"/>
<path opacity="0.7" d="M83.7598 56.6655C83.7598 56.6655 83.7334 71.5023 84.9454 77.0895C86.2078 82.9023 89.9206 96.1263 89.9206 96.1263L92.6134 95.7783C92.6134 95.7783 90.5086 82.4199 89.611 76.6431C88.6342 70.3479 89.2342 55.5999 89.2342 55.5999L83.7598 56.6655Z" fill="black"/>
<path opacity="0.5" d="M89.0661 62.1758L87.7461 60.8606C87.7965 66.5606 88.1157 69.3758 89.2125 72.443C89.0397 69.2006 89.0253 65.3654 89.0661 62.1758Z" fill="black"/>
<path d="M85.6172 56.2815C85.6172 56.2815 89.642 68.5431 91.6388 75.6063C93.746 83.0583 101.824 91.2999 101.824 91.2999L104.143 89.9607C104.143 89.9607 98.6228 82.1367 96.5924 75.1839C92.4644 61.0695 94.1612 58.0791 91.1156 55.2087L85.6172 56.2815Z" fill="#077339"/>
<path opacity="0.7" d="M85.6172 56.2815C85.6172 56.2815 89.642 68.5431 91.6388 75.6063C93.746 83.0583 101.824 91.2999 101.824 91.2999L104.143 89.9607C104.143 89.9607 98.6228 82.1367 96.5924 75.1839C92.4644 61.0695 94.1612 58.0791 91.1156 55.2087L85.6172 56.2815Z" fill="black"/>
<path d="M82.4542 36.239C83.5246 36.5966 84.4966 39.2534 84.5374 40.2998C84.5782 41.3462 81.4366 42.7886 81.4366 42.7886C81.4366 42.7886 80.0518 39.4286 80.4382 37.2686C80.6062 36.3302 82.4542 36.239 82.4542 36.239Z" fill="#263238"/>
<path d="M67.7639 48.3206L66.4943 46.9382L66.0791 48.671C66.0791 48.671 66.9815 49.4678 67.7111 49.1942L67.7639 48.3206Z" fill="#E58A7B"/>
<path d="M65.2078 46.5422L64.3198 47.2478L66.079 48.671L66.4942 46.9382L65.2078 46.5422Z" fill="#E58A7B"/>
<path d="M103.68 93.1167L105.163 91.6215C105.189 91.596 105.223 91.5804 105.259 91.5778C105.295 91.5752 105.331 91.5856 105.36 91.6071L106.711 92.6103C106.744 92.6366 106.772 92.6696 106.792 92.7073C106.811 92.7449 106.823 92.7863 106.825 92.8288C106.828 92.8712 106.821 92.9137 106.806 92.9534C106.791 92.9931 106.767 93.0292 106.737 93.0591C106.209 93.5703 105.931 93.7911 105.278 94.4487C104.877 94.8543 104.333 95.4855 103.778 96.0447C103.224 96.6039 102.641 96.0831 102.818 95.8047C103.627 94.5399 103.483 94.0671 103.538 93.4239C103.546 93.3077 103.597 93.1985 103.68 93.1167Z" fill="#263238"/>
<path d="M90.5446 98.3606H92.6518C92.6889 98.3605 92.7248 98.3735 92.7533 98.3972C92.7818 98.4208 92.8011 98.4538 92.8078 98.4902L93.139 100.156C93.1464 100.197 93.1447 100.239 93.134 100.279C93.1233 100.319 93.1038 100.357 93.077 100.389C93.0502 100.42 93.0167 100.446 92.9789 100.463C92.941 100.481 92.8999 100.49 92.8582 100.489C92.1214 100.477 91.7662 100.434 90.8398 100.434C90.271 100.434 89.095 100.492 88.3078 100.492C87.5206 100.492 87.4366 99.7142 87.7606 99.6446C89.2006 99.3278 89.7646 98.8934 90.2374 98.4758C90.3231 98.4025 90.4319 98.3617 90.5446 98.3606Z" fill="#263238"/>
<g style="mix-blend-mode:multiply" opacity="0.27">
<path d="M90.5016 47.5718L89.3496 48.2582L90.6792 53.2574C90.3888 51.743 90.5184 50.0798 90.5016 47.5718Z" fill="#077339"/>
</g>
<path d="M83.9541 39.7671C84.7725 40.4511 85.9605 41.4471 87.3597 40.2831C88.5597 39.2799 89.3997 36.6471 87.2469 36.5511C86.1213 36.5007 83.9541 39.7671 83.9541 39.7671Z" fill="#263238"/>
<path d="M85.9318 40.2351C85.9318 41.3679 86.107 43.4103 87.0118 43.9911C87.0118 43.9911 86.9302 45.1575 84.8998 45.5511C82.6702 45.9855 83.6182 44.6511 83.6182 44.6511C84.7798 44.1231 84.5782 43.2255 84.1942 42.4191L85.9318 40.2351Z" fill="#E58A7B"/>
<path d="M85.224 41.1255L84.1968 42.4191C84.2868 42.6061 84.3606 42.8004 84.4176 42.9999C84.8688 42.8415 85.4088 42.2079 85.3632 41.7111C85.3533 41.509 85.3061 41.3104 85.224 41.1255Z" fill="#CF6F64"/>
<path d="M86.04 37.6334C86.28 39.479 86.4264 40.2542 85.6872 41.3702C84.576 43.0502 82.2576 42.9422 81.468 41.207C80.748 39.6446 80.4792 36.887 82.1208 35.819C82.4818 35.58 82.8979 35.4374 83.3295 35.4047C83.7612 35.372 84.194 35.4503 84.5868 35.6322C84.9797 35.8141 85.3194 36.0934 85.5738 36.4437C85.8282 36.794 85.9886 37.2035 86.04 37.6334Z" fill="#E58A7B"/>
<path d="M82.8335 34.4007C81.5855 35.2863 84.0887 35.5479 84.0911 36.8319C84.0911 37.3623 84.9623 39.0447 86.2007 38.9487L87.4007 36.8175C88.6631 34.7775 85.6799 32.3775 82.8335 34.4007Z" fill="#263238"/>
<path d="M82.8335 34.4007C80.6375 34.2855 79.6799 36.0327 79.9319 37.6023C81.4639 37.2203 83.0485 37.0946 84.6215 37.2303C87.6311 37.5375 82.8335 34.4007 82.8335 34.4007Z" fill="#263238"/>
<path d="M86.6399 39.2247C86.6703 39.5829 86.5572 39.9386 86.3255 40.2135C86.0159 40.5759 85.6055 40.3623 85.4615 39.9327C85.3391 39.5439 85.3535 38.8887 85.7711 38.6823C85.8633 38.6396 85.9647 38.6206 86.0662 38.6269C86.1676 38.6333 86.2659 38.6648 86.3521 38.7186C86.4383 38.7724 86.5098 38.8469 86.56 38.9352C86.6103 39.0236 86.6377 39.1231 86.6399 39.2247Z" fill="#E58A7B"/>
<path d="M83.3737 38.6823C83.4025 38.8311 83.3473 38.9655 83.2513 38.9847C83.1553 39.0039 83.0521 38.8983 83.0233 38.7447C82.9945 38.5911 83.0497 38.4591 83.1457 38.4399C83.2417 38.4207 83.3449 38.5335 83.3737 38.6823Z" fill="#263238"/>
<path d="M81.6959 39.0087C81.7247 39.1575 81.6695 39.2943 81.5735 39.3135C81.4775 39.3327 81.3743 39.2271 81.3455 39.0735C81.3167 38.9199 81.3719 38.7879 81.4679 38.7711C81.5639 38.7543 81.6671 38.8575 81.6959 39.0087Z" fill="#263238"/>
<path d="M81.5135 38.7734L81.1367 38.7422C81.1367 38.7422 81.3743 38.9846 81.5135 38.7734Z" fill="#263238"/>
<path d="M82.1903 39.179C82.1229 39.5425 82.0066 39.8953 81.8447 40.2278C81.9308 40.2679 82.0246 40.2887 82.1195 40.2887C82.2145 40.2887 82.3083 40.2679 82.3943 40.2278L82.1903 39.179Z" fill="#DF5753"/>
<path d="M83.0205 40.7078C83.0101 40.7079 83.0001 40.7044 82.9922 40.6978C82.9843 40.6912 82.979 40.6819 82.9773 40.6718C82.9762 40.6661 82.9763 40.6603 82.9776 40.6546C82.9789 40.649 82.9813 40.6437 82.9846 40.639C82.988 40.6343 82.9922 40.6303 82.9972 40.6273C83.0021 40.6242 83.0075 40.6222 83.0133 40.6214C83.1988 40.5891 83.3741 40.5136 83.525 40.401C83.6759 40.2885 83.7982 40.142 83.8821 39.9734C83.8843 39.968 83.8875 39.9631 83.8916 39.959C83.8957 39.9549 83.9005 39.9517 83.9059 39.9494C83.9112 39.9472 83.917 39.9461 83.9228 39.946C83.9286 39.946 83.9343 39.9472 83.9397 39.9494C83.945 39.9516 83.9499 39.9548 83.954 39.9589C83.9581 39.963 83.9614 39.9679 83.9636 39.9732C83.9658 39.9785 83.967 39.9843 83.967 39.9901C83.967 39.9959 83.9659 40.0016 83.9637 40.007C83.8758 40.1902 83.7451 40.3495 83.5825 40.4715C83.42 40.5935 83.2305 40.6745 83.0301 40.7078H83.0205Z" fill="#263238"/>
<path d="M83.76 38.0438C83.738 38.044 83.7167 38.0364 83.7 38.0222C83.6192 37.9454 83.5215 37.8889 83.4147 37.8572C83.3079 37.8255 83.1951 37.8195 83.0856 37.8398C83.0614 37.8458 83.0358 37.842 83.0144 37.8292C82.993 37.8164 82.9776 37.7956 82.9716 37.7714C82.9655 37.7472 82.9693 37.7216 82.9821 37.7002C82.995 37.6788 83.0158 37.6634 83.04 37.6574C83.1784 37.6301 83.3212 37.6362 83.4569 37.675C83.5925 37.7138 83.7169 37.7843 83.82 37.8806C83.8364 37.8972 83.8456 37.9196 83.8456 37.943C83.8456 37.9663 83.8364 37.9888 83.82 38.0054C83.8133 38.0157 83.8044 38.0244 83.7941 38.0311C83.7837 38.0377 83.7721 38.042 83.76 38.0438Z" fill="#263238"/>
<path d="M80.7672 38.3775C80.7561 38.38 80.7446 38.38 80.7336 38.3775C80.7226 38.3731 80.7126 38.3665 80.7043 38.3581C80.6959 38.3497 80.6893 38.3398 80.6848 38.3288C80.6803 38.3179 80.6781 38.3061 80.6782 38.2943C80.6784 38.2825 80.6808 38.2708 80.6856 38.2599C80.7366 38.1287 80.8184 38.0116 80.924 37.9185C81.0297 37.8253 81.1561 37.7589 81.2928 37.7247C81.3043 37.7223 81.3162 37.7223 81.3278 37.7246C81.3393 37.727 81.3502 37.7317 81.3599 37.7384C81.3696 37.7452 81.3778 37.7538 81.384 37.7639C81.3902 37.7739 81.3942 37.7851 81.396 37.7967C81.3984 37.8081 81.3985 37.8198 81.3963 37.8312C81.3941 37.8427 81.3896 37.8535 81.3831 37.8631C81.3766 37.8728 81.3682 37.881 81.3585 37.8873C81.3487 37.8936 81.3378 37.8979 81.3264 37.8999C81.2185 37.9294 81.119 37.9835 81.0356 38.0581C80.9523 38.1326 80.8875 38.2256 80.8464 38.3295C80.8386 38.3439 80.8272 38.3559 80.8133 38.3643C80.7994 38.3728 80.7834 38.3773 80.7672 38.3775Z" fill="#263238"/>
<path d="M103.123 93.9878C103.082 93.9867 103.042 93.9757 103.006 93.9556C102.97 93.9355 102.939 93.907 102.917 93.8726C102.9 93.8523 102.888 93.8278 102.884 93.8017C102.879 93.7756 102.881 93.7487 102.89 93.7238C102.974 93.4982 103.637 93.3542 103.711 93.3374C103.72 93.3358 103.729 93.3368 103.737 93.3402C103.745 93.3436 103.752 93.3493 103.757 93.3566C103.762 93.3635 103.765 93.3719 103.765 93.3806C103.765 93.3892 103.762 93.3976 103.757 93.4046C103.627 93.6182 103.373 93.9758 103.135 93.9878H103.123ZM103.625 93.4478C103.363 93.515 103.018 93.635 102.974 93.755C102.97 93.766 102.969 93.778 102.972 93.7895C102.974 93.8011 102.98 93.8116 102.989 93.8198C103.004 93.8445 103.025 93.8649 103.05 93.8788C103.075 93.8927 103.104 93.8997 103.133 93.899C103.26 93.8918 103.44 93.7262 103.625 93.4478Z" fill="#077339"/>
<path d="M103.516 93.4479C103.276 93.4479 102.976 93.3879 102.888 93.2583C102.868 93.2288 102.859 93.1934 102.862 93.1581C102.865 93.1228 102.88 93.0895 102.904 93.0639C102.926 93.0371 102.952 93.0151 102.982 92.9994C103.012 92.9837 103.046 92.9746 103.08 92.9727H103.099C103.368 92.9727 103.737 93.3351 103.752 93.3495C103.757 93.3549 103.762 93.3618 103.764 93.3694C103.766 93.377 103.766 93.385 103.764 93.3927C103.762 93.4001 103.758 93.4068 103.752 93.4123C103.747 93.4177 103.74 93.4217 103.732 93.4239C103.662 93.4409 103.589 93.4489 103.516 93.4479ZM103.099 93.0615H103.084C103.063 93.0622 103.042 93.0677 103.023 93.0777C103.004 93.0877 102.987 93.1018 102.974 93.1191C102.94 93.1647 102.95 93.1911 102.962 93.2079C103.034 93.3183 103.401 93.3807 103.627 93.3543C103.483 93.2076 103.299 93.1059 103.099 93.0615Z" fill="#077339"/>
<path d="M89.856 98.6895C89.6946 98.7038 89.5331 98.6632 89.3976 98.5743C89.3656 98.5493 89.3404 98.5166 89.3245 98.4793C89.3085 98.4419 89.3023 98.4011 89.3064 98.3607C89.3063 98.3366 89.3124 98.3129 89.3242 98.2918C89.3359 98.2708 89.353 98.2532 89.3736 98.2407C89.5944 98.1111 90.3672 98.4951 90.4536 98.5383C90.4618 98.5426 90.4684 98.5492 90.4727 98.5574C90.477 98.5655 90.4787 98.5748 90.4776 98.5839C90.4765 98.5929 90.4727 98.6014 90.4667 98.6082C90.4607 98.6151 90.4528 98.62 90.444 98.6223C90.2505 98.6628 90.0537 98.6853 89.856 98.6895ZM89.5008 98.3007C89.4726 98.2989 89.4444 98.3047 89.4192 98.3175C89.4111 98.3218 89.4044 98.3285 89.4002 98.3366C89.3959 98.3447 89.3942 98.354 89.3952 98.3631C89.3928 98.3902 89.397 98.4174 89.4075 98.4425C89.4179 98.4676 89.4343 98.4897 89.4552 98.5071C89.5752 98.6103 89.8848 98.6271 90.2928 98.5599C90.0451 98.43 89.7774 98.3424 89.5008 98.3007Z" fill="#077339"/>
<path d="M90.4342 98.6175H90.4174C90.1774 98.5143 89.7142 98.1063 89.7478 97.8975C89.7478 97.8495 89.791 97.7871 89.911 97.7751H89.947C90.3646 97.7751 90.4726 98.5383 90.4774 98.5719C90.4785 98.58 90.4775 98.5882 90.4746 98.5957C90.4716 98.6033 90.4668 98.6099 90.4606 98.6151C90.4522 98.6184 90.4431 98.6192 90.4342 98.6175ZM89.9542 97.8591H89.9278C89.851 97.8591 89.8462 97.8951 89.8462 97.9047C89.827 98.0319 90.1438 98.3512 90.3838 98.4928C90.3358 98.3056 90.2134 97.8639 89.9446 97.8639L89.9542 97.8591Z" fill="#077339"/>
<path d="M83.1913 38.4472L82.8145 38.4136C82.8145 38.4136 83.0521 38.6584 83.1913 38.4472Z" fill="#263238"/>
<path d="M84.8396 47.1472C80.8244 48.0424 82.0652 45.6136 82.3052 45.0784L82.406 45.04C82.886 44.8648 82.982 44.8384 83.6204 44.6512C84.7344 44.3504 85.8685 44.1299 87.014 43.9912L87.254 43.9576C87.494 43.9264 87.7124 43.9024 87.9332 43.8832C88.082 43.8664 88.2308 43.8568 88.3724 43.8472L88.8524 43.8184C88.934 44.1928 89.1332 46.1944 84.8396 47.1472Z" fill="#E58A7B"/>
<path d="M91.1421 54.748L91.6101 55.3528C91.6461 55.3984 91.5957 55.4632 91.5093 55.48L83.6709 57.0064C83.6037 57.0208 83.5413 57.0064 83.5293 56.956L83.3301 56.3008C83.3301 56.2552 83.3685 56.2048 83.4405 56.1904L91.0101 54.7168C91.0329 54.71 91.0571 54.7094 91.0802 54.7148C91.1034 54.7203 91.1247 54.7317 91.1421 54.748Z" fill="#26395A"/>
<path d="M90.2901 55.7918L90.4941 55.7534C90.5349 55.7534 90.5613 55.7198 90.5541 55.6934L90.2901 54.8438C90.2901 54.8174 90.2421 54.8054 90.2013 54.8126L89.9997 54.851C89.9589 54.851 89.9325 54.887 89.9397 54.911L90.2037 55.763C90.2109 55.787 90.2517 55.8014 90.2901 55.7918Z" fill="#077339"/>
<path d="M85.6991 58.6238L84.1367 58.043L84.3767 59.5286C84.3767 59.5286 85.5095 59.9366 86.0879 59.4134L85.6991 58.6238Z" fill="#E58A7B"/>
<path d="M82.6489 58.4366L82.2769 59.411L84.3769 59.5286L84.1369 58.043L82.6489 58.4366Z" fill="#E58A7B"/>
<path d="M84.2542 56.9678L84.4582 56.9294C84.4966 56.9294 84.5254 56.8958 84.5158 56.8694L84.2518 56.0198C84.2518 55.9934 84.2062 55.9814 84.1654 55.9886L83.9614 56.027C83.9206 56.027 83.8942 56.063 83.9038 56.087L84.1678 56.939C84.175 56.963 84.2134 56.9774 84.2542 56.9678Z" fill="#077339"/>
<path d="M87.2734 56.3775L87.475 56.3391C87.5158 56.3391 87.5422 56.3055 87.535 56.2791L87.271 55.4295C87.271 55.4031 87.223 55.3911 87.1822 55.3983L86.9806 55.4367C86.9398 55.4367 86.9134 55.4727 86.9206 55.4967L87.1846 56.3487C87.1942 56.3626 87.2081 56.3729 87.2241 56.3781C87.2402 56.3833 87.2575 56.3831 87.2734 56.3775Z" fill="#077339"/>
<path d="M86.4191 43.0383C86.5895 42.9735 86.8031 43.5735 86.7503 43.6503C86.6279 43.8255 84.3863 44.4375 84.2855 44.0943C84.2793 43.9083 84.3078 43.7227 84.3695 43.5471C84.4343 43.4319 84.9311 43.6431 86.4191 43.0383Z" fill="#077339"/>
<path d="M86.0396 43.0527C86.126 42.8535 86.3732 42.5343 86.5892 42.7167C86.8052 42.8991 86.8964 43.2927 86.7548 43.3575C86.6132 43.4223 85.8908 43.3863 86.0396 43.0527Z" fill="#077339"/>
<path d="M86.4983 43.1559C86.6471 42.9975 86.9783 42.7791 87.1295 43.0239C87.2807 43.2687 87.2255 43.6695 87.0719 43.6815C86.9183 43.6935 86.2463 43.4175 86.4983 43.1559Z" fill="#077339"/>
<path d="M86.5796 43.1198C86.5675 42.9922 86.5926 42.8638 86.6518 42.7502C86.711 42.6365 86.8018 42.5423 86.9132 42.479C87.1868 42.3014 87.4532 42.1862 87.5588 41.999C87.6043 42.1745 87.6133 42.3575 87.5852 42.5366C87.53 42.7934 86.678 42.9902 86.7356 43.2134L86.5796 43.1198Z" fill="#077339"/>
<path d="M86.5438 43.108C86.4643 43.0072 86.4157 42.8857 86.4038 42.7579C86.3918 42.6301 86.4171 42.5017 86.4766 42.388C86.6062 42.0904 86.7694 41.8504 86.7598 41.6392C86.8931 41.7619 87.0001 41.9106 87.0742 42.076C87.1654 42.316 86.5582 42.9472 86.7286 43.1056L86.5438 43.108Z" fill="#077339"/>
<path d="M103.236 89.9919C103.231 89.9918 103.226 89.9904 103.222 89.9878C103.218 89.9853 103.214 89.9818 103.212 89.9775C103.156 89.9007 97.6701 82.0719 95.6589 75.1935C94.3463 70.7813 93.3376 66.2844 92.6397 61.7343C92.2245 59.1711 91.9725 57.6231 91.1469 56.3535C91.1413 56.3477 91.1382 56.34 91.1382 56.3319C91.1382 56.3239 91.1413 56.3161 91.1469 56.3103C91.1525 56.3054 91.1598 56.3027 91.1673 56.3027C91.1748 56.3027 91.182 56.3054 91.1877 56.3103C92.0229 57.5919 92.2749 59.1447 92.6901 61.7151C93.3912 66.2587 94.4016 70.7491 95.7141 75.1551C97.7229 82.0239 103.204 89.8431 103.26 89.9223C103.264 89.9282 103.267 89.9354 103.267 89.9427C103.267 89.9501 103.264 89.9573 103.26 89.9631C103.259 89.9699 103.257 89.9763 103.252 89.9815C103.248 89.9867 103.242 89.9904 103.236 89.9919Z" fill="#077339"/>
<path opacity="0.4" d="M103.236 89.9919C103.231 89.9918 103.226 89.9904 103.222 89.9878C103.218 89.9853 103.214 89.9818 103.212 89.9775C103.156 89.9007 97.6701 82.0719 95.6589 75.1935C94.3463 70.7813 93.3376 66.2844 92.6397 61.7343C92.2245 59.1711 91.9725 57.6231 91.1469 56.3535C91.1413 56.3477 91.1382 56.34 91.1382 56.3319C91.1382 56.3239 91.1413 56.3161 91.1469 56.3103C91.1525 56.3054 91.1598 56.3027 91.1673 56.3027C91.1748 56.3027 91.182 56.3054 91.1877 56.3103C92.0229 57.5919 92.2749 59.1447 92.6901 61.7151C93.3912 66.2587 94.4016 70.7491 95.7141 75.1551C97.7229 82.0239 103.204 89.8431 103.26 89.9223C103.264 89.9282 103.267 89.9354 103.267 89.9427C103.267 89.9501 103.264 89.9573 103.26 89.9631C103.259 89.9699 103.257 89.9763 103.252 89.9815C103.248 89.9867 103.242 89.9904 103.236 89.9919Z" fill="black"/>
<path d="M93.0957 95.7686L89.4285 96.2438L89.1885 95.2214L93.0069 94.4126L93.0957 95.7686Z" fill="#077339"/>
<path d="M104.337 89.8791L101.633 91.4415L100.721 90.6615L103.68 88.6599L104.337 89.8791Z" fill="#077339"/>
<path d="M91.6438 46.3286C91.7734 46.9958 91.8478 47.6246 91.9198 48.275C91.9918 48.9254 92.0182 49.5686 92.0374 50.219C92.0565 50.8745 92.0421 51.5306 91.9942 52.1846C91.9678 52.5134 91.939 52.8422 91.8934 53.1734C91.8742 53.3366 91.8526 53.5022 91.8214 53.6678L91.7326 54.1766C91.6342 54.5913 91.4538 54.9822 91.2022 55.3262C90.9957 55.6156 90.7679 55.8892 90.5206 56.1446C90.0575 56.6203 89.5601 57.0615 89.0326 57.4646C88.012 58.2504 86.932 58.9557 85.8022 59.5742L85.2886 58.7774C85.7686 58.3958 86.2486 58.0022 86.7286 57.6014C87.2086 57.2006 87.6646 56.795 88.1038 56.3726C88.5378 55.966 88.9473 55.5341 89.3302 55.079C89.506 54.8684 89.6664 54.6455 89.8102 54.4118C89.9235 54.2416 90.0049 54.0521 90.0502 53.8526C90.1282 53.27 90.1739 52.6835 90.187 52.0958C90.187 51.7958 90.187 51.4958 90.187 51.1958C90.187 50.8958 90.175 50.591 90.1606 50.2886C90.1318 49.6838 90.0766 49.0886 90.0118 48.4742C89.947 47.8598 89.863 47.2526 89.7718 46.6838L91.6438 46.3286Z" fill="#E58A7B"/>
<path d="M91.3533 44.2887C92.3781 45.1191 92.1333 47.5863 92.1333 47.5863L88.6772 48.7239C88.6772 48.7239 88.8356 45.8799 89.0084 44.8575C89.21 43.6407 90.3429 43.4703 91.3533 44.2887Z" fill="#077339"/>
<path opacity="0.2" d="M91.3533 44.2887C92.3781 45.1191 92.1333 47.5863 92.1333 47.5863L88.6772 48.7239C88.6772 48.7239 88.8356 45.8799 89.0084 44.8575C89.21 43.6407 90.3429 43.4703 91.3533 44.2887Z" fill="black"/>
<path d="M45.6984 54.5848C45.5644 54.0029 45.2369 53.4836 44.7696 53.1118C44.3024 52.74 43.7228 52.5375 43.1256 52.5376H23.9256C23.2255 52.5376 22.554 52.8157 22.0589 53.3108C21.5638 53.8059 21.2856 54.4774 21.2856 55.1776V97.8544C21.2856 98.5546 21.5638 99.2261 22.0589 99.7212C22.554 100.216 23.2255 100.494 23.9256 100.494H84.8856C85.5858 100.494 86.2573 100.216 86.7524 99.7212C87.2475 99.2261 87.5256 98.5546 87.5256 97.8544V62.0056C87.5256 61.3054 87.2475 60.6339 86.7524 60.1388C86.2573 59.6437 85.5858 59.3656 84.8856 59.3656H51.7056C50.3112 59.3658 48.9578 58.8932 47.8667 58.0248C46.7756 57.1565 46.0112 55.9437 45.6984 54.5848Z" fill="#077339"/>
<path opacity="0.6" d="M45.6984 54.5848C45.5644 54.0029 45.2369 53.4836 44.7696 53.1118C44.3024 52.74 43.7228 52.5375 43.1256 52.5376H23.9256C23.2255 52.5376 22.554 52.8157 22.0589 53.3108C21.5638 53.8059 21.2856 54.4774 21.2856 55.1776V97.8544C21.2856 98.5546 21.5638 99.2261 22.0589 99.7212C22.554 100.216 23.2255 100.494 23.9256 100.494H84.8856C85.5858 100.494 86.2573 100.216 86.7524 99.7212C87.2475 99.2261 87.5256 98.5546 87.5256 97.8544V62.0056C87.5256 61.3054 87.2475 60.6339 86.7524 60.1388C86.2573 59.6437 85.5858 59.3656 84.8856 59.3656H51.7056C50.3112 59.3658 48.9578 58.8932 47.8667 58.0248C46.7756 57.1565 46.0112 55.9437 45.6984 54.5848Z" fill="black"/>
<path opacity="0.22" d="M38.9209 41.2935L40.6321 46.8351C40.8505 47.5403 41.34 48.1301 41.9929 48.4748C42.6459 48.8195 43.4089 48.8909 44.1145 48.6735L49.6537 46.9623L38.9209 41.2935Z" fill="#077339"/>
<path d="M38.921 41.2935L19.121 47.4111C18.7715 47.5184 18.4465 47.6937 18.1648 47.9268C17.883 48.1598 17.65 48.4462 17.4791 48.7694C17.3081 49.0926 17.2025 49.4464 17.1684 49.8104C17.1343 50.1745 17.1723 50.5417 17.2802 50.8911L28.5842 87.4863C28.6921 87.8357 28.8677 88.1604 29.1012 88.4419C29.3346 88.7234 29.6212 88.9561 29.9445 89.1269C30.2679 89.2976 30.6218 89.4029 30.9859 89.4369C31.35 89.4708 31.7172 89.4327 32.0666 89.3247L57.4082 81.4959C57.7575 81.3882 58.0822 81.2128 58.3637 80.9796C58.6451 80.7464 58.8779 80.4601 59.0486 80.1369C59.2194 79.8137 59.3247 79.46 59.3587 79.0961C59.3927 78.7321 59.3546 78.3651 59.2466 78.0159L49.6466 46.9623L38.921 41.2935Z" fill="#077339"/>
<path opacity="0.8" d="M38.921 41.2935L19.121 47.4111C18.7715 47.5184 18.4465 47.6937 18.1648 47.9268C17.883 48.1598 17.65 48.4462 17.4791 48.7694C17.3081 49.0926 17.2025 49.4464 17.1684 49.8104C17.1343 50.1745 17.1723 50.5417 17.2802 50.8911L28.5842 87.4863C28.6921 87.8357 28.8677 88.1604 29.1012 88.4419C29.3346 88.7234 29.6212 88.9561 29.9445 89.1269C30.2679 89.2976 30.6218 89.4029 30.9859 89.4369C31.35 89.4708 31.7172 89.4327 32.0666 89.3247L57.4082 81.4959C57.7575 81.3882 58.0822 81.2128 58.3637 80.9796C58.6451 80.7464 58.8779 80.4601 59.0486 80.1369C59.2194 79.8137 59.3247 79.46 59.3587 79.0961C59.3927 78.7321 59.3546 78.3651 59.2466 78.0159L49.6466 46.9623L38.921 41.2935Z" fill="white"/>
<g opacity="0.28">
<path d="M49.5744 79.8975L33.1008 84.9855C32.7927 85.0801 32.4597 85.0489 32.1746 84.8987C31.8895 84.7485 31.6754 84.4915 31.5792 84.1839C31.4854 83.8758 31.5173 83.5431 31.668 83.2585C31.8186 82.9739 32.0757 82.7604 32.3832 82.6647L48.8568 77.5743C49.1652 77.4798 49.4985 77.5113 49.7837 77.662C50.0689 77.8127 50.2827 78.0702 50.3784 78.3783C50.4722 78.6864 50.4403 79.019 50.2897 79.3037C50.139 79.5883 49.8819 79.8018 49.5744 79.8975Z" fill="#077339"/>
</g>
<g opacity="0.28">
<path d="M31.8456 50.0367L23.1336 52.7271C22.8255 52.8211 22.4928 52.7896 22.2079 52.6394C21.9229 52.4893 21.7087 52.2327 21.612 51.9255C21.5182 51.6171 21.55 51.2841 21.7006 50.9991C21.8512 50.7141 22.1084 50.5001 22.416 50.4039L31.128 47.7135C31.4361 47.6182 31.7694 47.6491 32.0547 47.7994C32.34 47.9497 32.554 48.2071 32.6496 48.5151C32.7435 48.8235 32.7116 49.1565 32.561 49.4415C32.4104 49.7265 32.1533 49.9405 31.8456 50.0367Z" fill="#077339"/>
</g>
<g opacity="0.28">
<path d="M38.9544 52.8904L24.5544 57.3376C24.247 57.4299 23.9155 57.3973 23.632 57.2467C23.3485 57.0962 23.1357 56.84 23.04 56.5336C22.9454 56.2258 22.9767 55.8931 23.127 55.6084C23.2772 55.3236 23.5342 55.11 23.8416 55.0144L38.2416 50.5672C38.5497 50.4725 38.8827 50.5037 39.1678 50.654C39.4529 50.8042 39.667 51.0612 39.7632 51.3688C39.8562 51.6778 39.8234 52.011 39.6719 52.296C39.5204 52.581 39.2626 52.7946 38.9544 52.8904Z" fill="#077339"/>
</g>
<g opacity="0.28">
<path d="M46.9945 55.4559L25.9801 61.9359C25.6723 62.0304 25.3396 61.9991 25.0549 61.8489C24.7701 61.6986 24.5565 61.4417 24.4609 61.1343C24.3669 60.8262 24.3984 60.4935 24.5485 60.2085C24.6986 59.9235 24.9552 59.7094 25.2625 59.6127L46.2769 53.1327C46.5846 53.0388 46.917 53.0703 47.2016 53.2205C47.4862 53.3706 47.6999 53.6272 47.7961 53.9343C47.8907 54.2423 47.8595 54.5753 47.7093 54.8605C47.5591 55.1456 47.3021 55.3597 46.9945 55.4559Z" fill="#077339"/>
</g>
<g opacity="0.28">
<path d="M48.4177 60.064L36.2017 63.8392C35.8936 63.933 35.5609 63.9011 35.2763 63.7505C34.9916 63.5998 34.7782 63.3427 34.6825 63.0352C34.5886 62.7275 34.6201 62.3951 34.7703 62.1105C34.9205 61.8259 35.177 61.6122 35.4841 61.516L47.7001 57.7408C48.0085 57.6476 48.3412 57.6798 48.626 57.8303C48.9109 57.9808 49.1249 58.2375 49.2217 58.5448C49.3155 58.8529 49.2835 59.1856 49.1329 59.4702C48.9823 59.7548 48.7251 59.9683 48.4177 60.064Z" fill="#077339"/>
</g>
<g opacity="0.28">
<path d="M30.6001 65.5695L27.4057 66.5559C27.0976 66.6505 26.7646 66.6193 26.4795 66.4691C26.1943 66.3188 25.9803 66.0619 25.8841 65.7543C25.7896 65.4459 25.8211 65.1126 25.9718 64.8274C26.1225 64.5422 26.3801 64.3283 26.6881 64.2327L29.8825 63.2463C30.1906 63.1523 30.5233 63.1838 30.8083 63.3339C31.0932 63.484 31.3074 63.7406 31.4041 64.0479C31.4973 64.3563 31.4652 64.689 31.3147 64.9738C31.1641 65.2587 30.9074 65.4727 30.6001 65.5695Z" fill="#077339"/>
</g>
<g opacity="0.28">
<path d="M49.8436 64.6744L28.8292 71.1664C28.5211 71.2602 28.1885 71.2282 27.9038 71.0776C27.6192 70.927 27.4057 70.6698 27.31 70.3624C27.2155 70.0546 27.2467 69.7219 27.397 69.4372C27.5472 69.1524 27.8042 68.9388 28.1116 68.8432L49.126 62.3512C49.4338 62.2573 49.7662 62.2888 50.0507 62.439C50.3353 62.5892 50.549 62.8457 50.6452 63.1528C50.7398 63.4608 50.7086 63.7939 50.5584 64.079C50.4082 64.3641 50.1512 64.5782 49.8436 64.6744Z" fill="#077339"/>
</g>
<g opacity="0.28">
<path d="M43.1568 71.788L30.252 75.7744C29.9443 75.8683 29.6119 75.8367 29.3273 75.6866C29.0427 75.5364 28.829 75.2798 28.7328 74.9728C28.6389 74.6647 28.6704 74.332 28.8205 74.047C28.9706 73.7621 29.2272 73.5479 29.5344 73.4512L42.4392 69.4648C42.7476 69.3709 43.0806 69.4028 43.3656 69.5534C43.6507 69.704 43.8646 69.9611 43.9608 70.2688C44.0553 70.5769 44.0237 70.9098 43.873 71.1946C43.7222 71.4794 43.4647 71.6928 43.1568 71.788Z" fill="#077339"/>
</g>
<g opacity="0.28">
<path d="M51.2665 69.2848L47.8225 70.348C47.5141 70.4419 47.1811 70.41 46.8961 70.2594C46.6111 70.1088 46.3971 69.8517 46.3009 69.544C46.2071 69.2359 46.239 68.9033 46.3897 68.6186C46.5403 68.334 46.7974 68.1205 47.1049 68.0248L50.5489 66.9616C50.8567 66.8671 51.1894 66.8983 51.4741 67.0486C51.7588 67.1988 51.9724 67.4558 52.0681 67.7632C52.1627 68.0713 52.1315 68.4043 51.9813 68.6894C51.8311 68.9746 51.5741 69.1886 51.2665 69.2848Z" fill="#077339"/>
</g>
<g opacity="0.28">
<path d="M52.6896 73.8976L31.68 80.3776C31.3716 80.4721 31.0384 80.4405 30.7532 80.2899C30.468 80.1392 30.2541 79.8816 30.1584 79.5736C30.064 79.2655 30.0956 78.9325 30.2463 78.6477C30.397 78.3629 30.6546 78.1495 30.9624 78.0544L51.9744 71.5624C52.2828 71.4691 52.6155 71.5013 52.9004 71.6518C53.1852 71.8023 53.3993 72.0591 53.496 72.3664C53.5442 72.5198 53.5616 72.6813 53.5471 72.8415C53.5326 73.0018 53.4866 73.1575 53.4116 73.2998C53.3367 73.4422 53.2343 73.5683 53.1104 73.6709C52.9864 73.7734 52.8435 73.8505 52.6896 73.8976Z" fill="#077339"/>
</g>
<path d="M53.1408 27.5319L59.424 41.5335C59.5871 41.899 59.5989 42.3142 59.4568 42.6884C59.3147 43.0625 59.0303 43.3652 58.6656 43.5303L32.0112 55.4943C31.6458 55.6581 31.2304 55.6702 30.856 55.528C30.4817 55.3858 30.179 55.101 30.0144 54.7359L23.7288 40.7343C23.5643 40.3686 23.5518 39.9525 23.694 39.5776C23.8362 39.2027 24.1216 38.8996 24.4872 38.7351L51.1416 26.7711C51.5078 26.608 51.9236 26.5965 52.2982 26.7391C52.6728 26.8816 52.9757 27.1667 53.1408 27.5319Z" fill="#077339"/>
<path opacity="0.3" d="M53.1408 27.5319L59.424 41.5335C59.5871 41.899 59.5989 42.3142 59.4568 42.6884C59.3147 43.0625 59.0303 43.3652 58.6656 43.5303L32.0112 55.4943C31.6458 55.6581 31.2304 55.6702 30.856 55.528C30.4817 55.3858 30.179 55.101 30.0144 54.7359L23.7288 40.7343C23.5643 40.3686 23.5518 39.9525 23.694 39.5776C23.8362 39.2027 24.1216 38.8996 24.4872 38.7351L51.1416 26.7711C51.5078 26.608 51.9236 26.5965 52.2982 26.7391C52.6728 26.8816 52.9757 27.1667 53.1408 27.5319Z" fill="black"/>
<path d="M48.9402 26.8401L48.0884 27.2222L48.1866 27.4411L49.0384 27.059L48.9402 26.8401Z" fill="#077339"/>
<path d="M46.8955 27.7562L44.2393 28.9478L44.3375 29.1667L46.9937 27.9752L46.8955 27.7562Z" fill="#077339"/>
<path d="M23.7053 42.1453L23.4863 42.2437L24.2138 43.8638L24.4327 43.7655L23.7053 42.1453Z" fill="#077339"/>
<path opacity="0.6" d="M52.248 26.7207L45.3744 40.1847C44.7366 41.4327 43.692 42.4256 42.4134 42.9995C41.1348 43.5733 39.6987 43.6937 38.3424 43.3407L23.7144 39.5271C23.8644 39.1761 24.14 38.8938 24.4872 38.7351L51.1416 26.7711C51.4907 26.615 51.8861 26.597 52.248 26.7207Z" fill="#077339"/>
<path d="M61.697 43.9526L41.0138 45.2294C40.6484 45.2512 40.2909 45.3447 39.9617 45.5048C39.6325 45.6648 39.3381 45.8882 39.0953 46.1622C38.8526 46.4362 38.6662 46.7553 38.547 47.1014C38.4277 47.4475 38.3778 47.8137 38.4002 48.179L40.7594 86.4062C40.7815 86.7719 40.8754 87.1296 41.0359 87.4588C41.1964 87.7881 41.4203 88.0824 41.6947 88.325C41.9692 88.5676 42.2888 88.7536 42.6353 88.8724C42.9818 88.9912 43.3483 89.0405 43.7138 89.0174L70.1858 87.383C70.5508 87.361 70.9079 87.2672 71.2366 87.107C71.5653 86.9467 71.8591 86.7232 72.1012 86.4492C72.3433 86.1752 72.529 85.8561 72.6476 85.5102C72.7662 85.1643 72.8153 84.7984 72.7922 84.4334L70.8002 51.9926L61.697 43.9526Z" fill="#077339"/>
<path opacity="0.8" d="M61.697 43.9526L41.0138 45.2294C40.6484 45.2512 40.2909 45.3447 39.9617 45.5048C39.6325 45.6648 39.3381 45.8882 39.0953 46.1622C38.8526 46.4362 38.6662 46.7553 38.547 47.1014C38.4277 47.4475 38.3778 47.8137 38.4002 48.179L40.7594 86.4062C40.7815 86.7719 40.8754 87.1296 41.0359 87.4588C41.1964 87.7881 41.4203 88.0824 41.6947 88.325C41.9692 88.5676 42.2888 88.7536 42.6353 88.8724C42.9818 88.9912 43.3483 89.0405 43.7138 89.0174L70.1858 87.383C70.5508 87.361 70.9079 87.2672 71.2366 87.107C71.5653 86.9467 71.8591 86.7232 72.1012 86.4492C72.3433 86.1752 72.529 85.8561 72.6476 85.5102C72.7662 85.1643 72.8153 84.7984 72.7922 84.4334L70.8002 51.9926L61.697 43.9526Z" fill="white"/>
<g opacity="0.22">
<path d="M62.9475 83.9776L45.7371 85.0408C45.4156 85.0592 45.0999 84.9497 44.8589 84.7361C44.6179 84.5225 44.4711 84.2222 44.4507 83.9008C44.4323 83.5794 44.5415 83.2638 44.7545 83.0225C44.9675 82.7811 45.2672 82.6336 45.5883 82.612L62.7987 81.5512C63.1203 81.5321 63.4363 81.6411 63.6777 81.8542C63.9192 82.0674 64.0665 82.3674 64.0875 82.6888C64.1066 83.0107 63.9973 83.3271 63.7837 83.5686C63.57 83.8102 63.2694 83.9572 62.9475 83.9776Z" fill="#077339"/>
</g>
<g opacity="0.22">
<path d="M52.7617 50.7807L43.6585 51.3375C43.3371 51.356 43.0214 51.2468 42.7801 51.0338C42.5388 50.8208 42.3913 50.5211 42.3697 50.1999C42.3513 49.8782 42.4607 49.5622 42.6743 49.3208C42.8878 49.0794 43.1881 48.9321 43.5097 48.9111L52.6129 48.3495C52.9342 48.3305 53.2499 48.4395 53.491 48.6527C53.7321 48.8659 53.8789 49.1659 53.8993 49.4871C53.9197 49.8095 53.8113 50.1267 53.598 50.3693C53.3848 50.6118 53.084 50.7598 52.7617 50.7807Z" fill="#077339"/>
</g>
<g opacity="0.22">
<path d="M58.9968 55.2304L43.956 56.1568C43.6343 56.1766 43.3179 56.0678 43.0763 55.8546C42.8347 55.6413 42.6875 55.3409 42.6672 55.0192C42.6481 54.6973 42.7574 54.381 42.971 54.1394C43.1847 53.8979 43.4853 53.7508 43.8072 53.7304L58.8456 52.804C59.1672 52.7843 59.4836 52.893 59.7252 53.1063C59.9669 53.3196 60.114 53.62 60.1344 53.9416C60.1534 54.2632 60.0445 54.5792 59.8314 54.8206C59.6182 55.0621 59.3182 55.2094 58.9968 55.2304Z" fill="#077339"/>
</g>
<g opacity="0.22">
<path d="M66.2041 59.62L44.2537 60.9736C43.9312 60.9933 43.6139 60.8844 43.3715 60.6708C43.129 60.4571 42.9811 60.1561 42.9601 59.8336C42.9411 59.5123 43.0501 59.1966 43.2633 58.9555C43.4765 58.7144 43.7765 58.5676 44.0977 58.5472L66.0505 57.1912C66.3721 57.1728 66.6878 57.2824 66.9288 57.4959C67.1698 57.7095 67.3166 58.0098 67.3369 58.3312C67.3561 58.6519 67.2478 58.9673 67.0356 59.2086C66.8235 59.45 66.5247 59.5978 66.2041 59.62Z" fill="#077339"/>
</g>
<g opacity="0.22">
<path d="M66.5016 64.4343L53.7408 65.2215C53.4193 65.2406 53.1033 65.1316 52.8618 64.9185C52.6203 64.7053 52.473 64.4053 52.452 64.0839C52.4323 63.7622 52.541 63.4459 52.7543 63.2042C52.9675 62.9626 53.2679 62.8155 53.5896 62.7951L66.3504 62.0079C66.6721 61.9882 66.9884 62.0969 67.2301 62.3102C67.4717 62.5234 67.6188 62.8239 67.6392 63.1455C67.6583 63.467 67.5493 63.783 67.3362 64.0245C67.123 64.266 66.823 64.4133 66.5016 64.4343Z" fill="#077339"/>
</g>
<g opacity="0.22">
<path d="M47.8872 65.5815L44.5488 65.7879C44.2275 65.8069 43.9118 65.6979 43.6707 65.4847C43.4296 65.2715 43.2828 64.9715 43.2624 64.6503C43.2433 64.3288 43.3523 64.0127 43.5654 63.7713C43.7786 63.5298 44.0786 63.3825 44.4 63.3615L47.7384 63.1551C48.0602 63.1367 48.3762 63.2461 48.6176 63.4597C48.859 63.6732 49.0062 63.9735 49.0272 64.2951C49.0456 64.6166 48.936 64.9323 48.7225 65.1733C48.5089 65.4144 48.2086 65.5611 47.8872 65.5815Z" fill="#077339"/>
</g>
<g opacity="0.22">
<path d="M66.7993 69.2488L44.8465 70.6024C44.5249 70.6215 44.2089 70.5126 43.9675 70.2994C43.726 70.0863 43.5787 69.7863 43.5577 69.4648C43.5392 69.1431 43.6487 68.8271 43.8623 68.5857C44.0758 68.3443 44.3761 68.197 44.6977 68.176L66.6481 66.8224C66.97 66.8034 67.2863 66.9126 67.5279 67.1263C67.7694 67.34 67.9165 67.6406 67.9369 67.9624C67.9559 68.2837 67.8469 68.5995 67.6337 68.8406C67.4205 69.0817 67.1205 69.2285 66.7993 69.2488Z" fill="#077339"/>
</g>
<g opacity="0.22">
<path d="M58.6251 74.5863L45.1443 75.4191C44.8226 75.4376 44.5065 75.3281 44.2651 75.1145C44.0237 74.901 43.8765 74.6007 43.8555 74.2791C43.8371 73.9576 43.9467 73.6419 44.1603 73.4009C44.3738 73.1599 44.6741 73.0131 44.9955 72.9928L58.4763 72.16C58.7978 72.1416 59.1136 72.2511 59.3546 72.4647C59.5956 72.6783 59.7423 72.9786 59.7627 73.3C59.7824 73.6214 59.6736 73.9375 59.4603 74.1787C59.247 74.42 58.9465 74.5666 58.6251 74.5863Z" fill="#077339"/>
</g>
<g opacity="0.22">
<path d="M67.0947 74.0656L63.4947 74.2864C63.1735 74.3055 62.8577 74.1965 62.6166 73.9833C62.3755 73.7701 62.2287 73.47 62.2083 73.1488C62.1886 72.8272 62.2973 72.5108 62.5106 72.2692C62.7239 72.0276 63.0243 71.8804 63.3459 71.86L66.9459 71.6392C67.2676 71.6195 67.584 71.7282 67.8256 71.9415C68.0672 72.1548 68.2144 72.4552 68.2347 72.7768C68.2531 73.0986 68.1437 73.4146 67.9301 73.656C67.7166 73.8974 67.4163 74.0446 67.0947 74.0656Z" fill="#077339"/>
</g>
<g opacity="0.22">
<path d="M67.3922 78.88L45.4418 80.2336C45.1203 80.2526 44.8043 80.1437 44.5628 79.9305C44.3213 79.7174 44.174 79.4174 44.153 79.096C44.1339 78.7744 44.2429 78.4584 44.456 78.2169C44.6692 77.9755 44.9692 77.8281 45.2906 77.8072L67.2434 76.4536C67.5647 76.4345 67.8804 76.5435 68.1215 76.7567C68.3626 76.9699 68.5094 77.27 68.5298 77.5912C68.5495 77.9128 68.4408 78.2292 68.2276 78.4708C68.0143 78.7124 67.7139 78.8596 67.3922 78.88Z" fill="#077339"/>
</g>
<path opacity="0.22" d="M61.6968 43.9526L62.0544 49.7414C62.0767 50.1064 62.1707 50.4634 62.331 50.7921C62.4914 51.1207 62.7149 51.4146 62.9888 51.6569C63.2627 51.8991 63.5816 52.085 63.9274 52.204C64.2732 52.323 64.639 52.3727 65.004 52.3502L70.8 51.9926L61.6968 43.9526Z" fill="#077339"/>
<path opacity="0.5" d="M54.9244 58.3936C54.9208 58.1162 54.8616 57.8424 54.7503 57.5882C54.6391 57.3341 54.478 57.1048 54.2767 56.914C54.0753 56.7231 53.8377 56.5746 53.578 56.4771C53.3183 56.3796 53.0416 56.3352 52.7644 56.3464H33.5404C32.0836 56.3464 30.6604 57.5296 30.3868 58.9864L22.8004 97.8544C22.5172 99.3112 23.4676 100.494 24.9244 100.494H85.8844C87.3412 100.494 88.7524 99.3136 89.038 97.8544L95.2948 65.8144C95.578 64.3552 94.6276 63.1744 93.1708 63.1744H60.0004C57.1204 63.1744 55.0228 61.192 54.9244 58.3936Z" fill="#077339"/>
</svg>
